<svg xmlns:xlink="http://www.w3.org/1999/xlink" width="76" height="76" viewBox="0 0 76 76" fill="none" xmlns="http://www.w3.org/2000/svg">
<circle opacity="0.1" cx="38" cy="38" r="38" fill="#00BB98"/>
<path d="M29.4498 45.6C30.2057 45.6 30.9306 45.2997 31.4651 44.7653C31.9995 44.2308 32.2998 43.5059 32.2998 42.75C32.3091 42.6552 32.3091 42.5598 32.2998 42.465L37.6008 37.164H38.4748L41.5338 40.223V40.375C41.5338 41.1309 41.8341 41.8558 42.3686 42.3903C42.903 42.9247 43.6279 43.225 44.3838 43.225C45.1397 43.225 45.8646 42.9247 46.3991 42.3903C46.9335 41.8558 47.2338 41.1309 47.2338 40.375V40.223L54.1498 33.25C54.7135 33.25 55.2645 33.0829 55.7332 32.7697C56.2019 32.4565 56.5672 32.0114 56.7829 31.4906C56.9986 30.9699 57.055 30.3968 56.9451 29.844C56.8351 29.2911 56.5636 28.7833 56.1651 28.3847C55.7665 27.9862 55.2587 27.7147 54.7058 27.6048C54.153 27.4948 53.5799 27.5512 53.0592 27.7669C52.5384 27.9827 52.0933 28.3479 51.7801 28.8166C51.467 29.2853 51.2998 29.8363 51.2998 30.4C51.2905 30.4948 51.2905 30.5902 51.2998 30.685L44.4408 37.544H44.1368L40.8498 34.2C40.8498 33.4441 40.5495 32.7192 40.0151 32.1847C39.4806 31.6503 38.7557 31.35 37.9998 31.35C37.2439 31.35 36.519 31.6503 35.9846 32.1847C35.4501 32.7192 35.1498 33.4441 35.1498 34.2L29.4498 39.9C28.6939 39.9 27.969 40.2003 27.4346 40.7347C26.9001 41.2692 26.5998 41.9941 26.5998 42.75C26.5998 43.5059 26.9001 44.2308 27.4346 44.7653C27.969 45.2997 28.6939 45.6 29.4498 45.6ZM55.0998 53.2H22.7998V20.9C22.7998 20.3961 22.5996 19.9128 22.2433 19.5565C21.887 19.2002 21.4037 19 20.8998 19C20.3959 19 19.9126 19.2002 19.5563 19.5565C19.2 19.9128 18.9998 20.3961 18.9998 20.9V55.1C18.9998 55.6039 19.2 56.0872 19.5563 56.4435C19.9126 56.7998 20.3959 57 20.8998 57H55.0998C55.6037 57 56.087 56.7998 56.4433 56.4435C56.7996 56.0872 56.9998 55.6039 56.9998 55.1C56.9998 54.5961 56.7996 54.1128 56.4433 53.7565C56.087 53.4002 55.6037 53.2 55.0998 53.2Z" fill="#00BB98"/>
</svg>
